<?xml version="1.0" encoding="UTF-8" standalone="no"?> <svg id="Layer_1" data-name="Layer 1" xmlns="http://www.w3.org/2000/svg" viewBox="0 0 128 128"><defs><style>.cls-1{fill:#010101;}.cls-2{fill:#010101;}</style></defs><title>b</title><path class="cls-1" d="M53.15919,42.0156A10.26657,10.26657,0,0,0,37.11829,41.915a15.702,15.702,0,0,0-1.1985,18.80231,10.22989,10.22989,0,0,0,14.524,2.92909C57.18617,58.88615,58.481,48.57781,53.15919,42.0156Zm-5.787,16.02422a3.70976,3.70976,0,0,1-5.66963-.31016,8.92927,8.92927,0,0,1,.46513-11.8589c2.21676-2.09522,4.51309-1.88562,6.37783.53639A9.17062,9.17062,0,0,1,47.37221,58.03982Z"/><path class="cls-1" d="M80.39082,41.57988c-.7738-.48308-1.59473-.98973-2.44706-1.4847-1.73225-1.05658-2.34893-.93488-3.44869.83267Q61.46235,61.64358,48.48458,82.38278c-2.04642,3.26811-2.02676,3.27978,1.31189,5.36167,2.09362,1.28447,2.60027,1.16662,3.9083-.91913q8.61968-13.73389,17.21595-27.4756,4.67219-7.44725,9.35622-14.91422C80.84642,43.536,81.22746,42.62865,80.39082,41.57988Z"/><path class="cls-1" d="M78.10892,63.944c-7.24525,4.44177-8.80408,15.62187-3.05482,22.17979,3.66241,4.20728,9.24828,4.97409,13.60629,1.88584,7.05663-4.98246,8.04141-15.911,2.04488-22.32242A9.938,9.938,0,0,0,78.10892,63.944ZM85.66,82.3526a3.88278,3.88278,0,0,1-5.93782-.41072c-2.75309-3.1931-2.33824-9.04711.82551-11.90086,2.2-1.94421,4.73519-1.56709,6.31918.93455C89.20933,74.65473,88.66039,79.68322,85.66,82.3526Z"/><path class="cls-2" d="M64.00044,3.62193a60.37807,60.37807,0,1,0,60.37768,60.37763A60.4462,60.4462,0,0,0,64.00044,3.62193Zm0,107.78635a47.40834,47.40834,0,1,1,47.408-47.40872A47.46244,47.46244,0,0,1,64.00044,111.40828Z"/></svg>